<?xml version="1.0" standalone="no"?>
<!DOCTYPE svg PUBLIC "-//W3C//DTD SVG 20010904//EN"
 "http://www.w3.org/TR/2001/REC-SVG-20010904/DTD/svg10.dtd">
<svg version="1.0" xmlns="http://www.w3.org/2000/svg"
 width="155.000000pt" height="155.000000pt" viewBox="0 0 155.000000 155.000000"
 preserveAspectRatio="xMidYMid meet">
<metadata>
Created by potrace 1.11, written by Peter Selinger 2001-2013
</metadata>
<g transform="translate(0.000000,155.000000) scale(0.100000,-0.100000)"
fill="#000000" stroke="none">
<path d="M588 1501 c-266 -72 -477 -286 -542 -552 -21 -86 -21 -262 0 -348 66
-269 286 -489 555 -555 86 -21 262 -21 348 0 269 66 489 286 555 555 21 86 21
262 0 348 -66 269 -286 489 -555 555 -90 22 -273 21 -361 -3z m377 -283 c79
-8 127 -8 164 -1 l52 10 -28 -29 c-56 -59 -93 -70 -207 -62 l-102 6 -51 -153
-52 -154 32 -6 c18 -4 68 -10 112 -14 l80 -7 -27 -23 c-21 -18 -44 -25 -105
-30 -43 -3 -87 -7 -97 -8 -16 -2 -27 -26 -58 -137 -22 -74 -47 -181 -56 -237
-16 -96 -19 -103 -40 -103 -39 0 -72 43 -72 93 0 56 29 168 73 287 l35 93 -69
-6 c-38 -3 -69 -4 -69 -2 0 2 5 15 11 28 15 33 59 57 117 64 l48 5 29 77 c15
42 45 114 66 160 l39 84 -73 -5 c-82 -5 -128 -25 -145 -63 -14 -31 -15 -88 -3
-133 9 -28 7 -32 -10 -32 -35 0 -79 53 -79 95 0 75 48 137 138 177 86 39 169
45 347 26z"/>
</g>
</svg>
