<?xml version="1.0" standalone="no"?>
<!DOCTYPE svg PUBLIC "-//W3C//DTD SVG 20010904//EN"
 "http://www.w3.org/TR/2001/REC-SVG-20010904/DTD/svg10.dtd">
<svg version="1.0" xmlns="http://www.w3.org/2000/svg"
 width="155.000000pt" height="155.000000pt" viewBox="0 0 155.000000 155.000000"
 preserveAspectRatio="xMidYMid meet">
<metadata>
Created by potrace 1.11, written by Peter Selinger 2001-2013
</metadata>
<g transform="translate(0.000000,155.000000) scale(0.100000,-0.100000)"
fill="#000000" stroke="none">
<path d="M588 1501 c-266 -72 -477 -286 -542 -552 -21 -86 -21 -262 0 -348 66
-269 286 -489 555 -555 86 -21 262 -21 348 0 269 66 489 286 555 555 21 86 21
262 0 348 -66 269 -286 489 -555 555 -90 22 -273 21 -361 -3z m578 -257 c49
-34 68 -56 94 -109 20 -42 21 -56 18 -382 l-3 -338 -25 -35 c-39 -54 -81 -89
-122 -100 -22 -6 -168 -10 -361 -10 -301 1 -327 2 -364 21 -37 18 -64 40 -88
71 -33 43 -35 71 -35 403 l1 334 25 46 c28 54 38 65 89 99 l38 26 347 0 347 0
39 -26z"/>
<path d="M488 1118 c-3 -105 -4 -113 -23 -113 -19 0 -20 8 -23 103 -1 56 -6
102 -11 102 -5 0 -9 -46 -10 -102 -2 -97 -10 -126 -33 -112 -4 3 -8 44 -8 92
0 83 -1 86 -16 63 -25 -36 -40 -94 -36 -145 l4 -46 126 0 c121 0 127 1 152 25
30 29 125 65 170 65 45 0 140 -36 170 -65 25 -24 31 -25 153 -25 l127 0 1 43
c1 23 0 51 -1 62 -3 38 -42 106 -75 131 l-33 25 -281 2 -281 2 0 -106 c0 -82
-3 -109 -15 -119 -12 -10 -16 -9 -21 4 -3 9 -11 13 -18 9 -7 -4 -8 -2 -1 5 12
13 7 212 -5 212 -5 0 -11 -51 -12 -112z m646 36 c3 -9 6 -40 6 -69 0 -63 -13
-75 -80 -75 -68 0 -80 12 -80 78 0 32 5 63 12 70 19 19 134 16 142 -4z"/>
<path d="M686 977 c-68 -40 -100 -88 -106 -165 -5 -57 -2 -73 18 -114 29 -59
58 -83 127 -104 45 -15 60 -15 98 -5 67 19 102 45 132 96 35 59 38 156 7 207
-62 101 -184 138 -276 85z m179 -51 c47 -32 54 -41 66 -88 33 -122 -63 -227
-186 -204 -43 8 -115 74 -115 105 0 12 -3 20 -7 18 -5 -3 -8 14 -8 38 0 24 2
42 4 39 2 -2 12 13 22 34 41 82 149 110 224 58z"/>
<path d="M733 851 c-17 -14 -23 -30 -23 -59 0 -48 24 -72 72 -72 45 0 68 25
68 74 0 44 -30 75 -70 75 -14 0 -35 -8 -47 -18z"/>
<path d="M327 669 c2 -233 3 -243 25 -276 13 -18 42 -42 64 -53 39 -19 61 -21
370 -21 l329 0 39 28 c72 51 76 70 79 332 l2 231 -112 0 -112 0 11 -30 c5 -17
8 -66 7 -109 -4 -71 -7 -83 -35 -118 -112 -139 -260 -158 -382 -48 -27 24 -57
60 -66 79 -18 38 -22 159 -6 200 l10 26 -113 0 -112 0 2 -241z"/>
</g>
</svg>
